<?xml version="1.0" standalone="no"?>
<!DOCTYPE svg PUBLIC "-//W3C//DTD SVG 20010904//EN"
 "http://www.w3.org/TR/2001/REC-SVG-20010904/DTD/svg10.dtd">
<svg version="1.0" xmlns="http://www.w3.org/2000/svg"
 width="357.000000pt" height="361.000000pt" viewBox="0 0 357.000000 361.000000"
 preserveAspectRatio="xMidYMid meet">

<g transform="translate(0.000000,361.000000) scale(0.100000,-0.100000)"
fill="#000000" stroke="none">
<path d="M2915 3549 c-121 -42 -245 -131 -391 -281 -103 -106 -233 -263 -304
-368 -22 -33 -48 -64 -58 -68 -9 -5 -70 -13 -135 -16 l-118 -7 7 25 c5 22 3
25 -10 20 -9 -4 -24 -20 -32 -36 -10 -18 -19 -26 -27 -21 -7 4 -25 9 -42 10
-16 1 -42 4 -57 8 -26 7 -28 5 -28 -23 0 -16 -7 -35 -15 -42 -12 -10 -15 -10
-15 0 0 8 -7 22 -17 32 -15 17 -14 20 20 53 38 37 39 46 9 93 -8 12 -12 25 -9
29 11 10 -13 42 -42 57 -35 18 -77 27 -97 19 -18 -7 -18 -47 1 -63 23 -19 18
-29 -12 -27 -25 2 -29 -2 -33 -32 -6 -39 -29 -51 -77 -41 -18 4 -34 6 -36 4
-2 -3 -10 2 -16 10 -10 12 -9 20 4 40 21 32 15 42 -35 50 -59 9 -92 -1 -84
-26 4 -15 2 -19 -7 -15 -8 2 -13 10 -11 16 1 6 -7 11 -18 11 -16 0 -20 -7 -20
-30 0 -31 17 -39 37 -19 23 23 153 -33 153 -66 0 -9 10 -11 34 -8 40 5 106
-20 106 -41 0 -9 -12 -16 -32 -18 -22 -2 -32 -9 -34 -22 -3 -20 -24 -47 -24
-30 0 5 -21 11 -47 12 -56 2 -72 14 -55 42 8 14 9 21 0 26 -7 4 -8 3 -4 -4 4
-7 5 -12 1 -12 -3 0 -10 11 -15 25 -9 25 -30 35 -30 15 0 -6 -13 -4 -30 5 -42
22 -47 19 -52 -25 -2 -22 0 -40 4 -40 5 0 8 11 8 25 0 14 2 25 5 25 14 0 55
-46 55 -61 0 -12 6 -16 20 -12 12 3 22 0 24 -8 11 -32 14 -79 5 -85 -5 -3 -8
0 -7 8 2 7 -5 13 -14 13 -10 0 -18 -4 -19 -10 -1 -5 -5 -18 -11 -28 -7 -15
-12 -16 -24 -6 -8 6 -14 9 -14 5 0 -3 -10 -2 -23 3 -30 12 -57 -4 -57 -32 0
-28 88 -97 128 -101 33 -4 71 9 97 34 12 11 39 23 60 28 22 4 40 12 40 17 2
36 18 55 45 55 24 0 31 -5 36 -27 5 -17 2 -30 -7 -37 -8 -6 -14 -20 -14 -31 0
-12 -8 -21 -20 -23 -19 -3 -19 -2 -3 11 15 12 12 13 -25 12 -41 -1 -42 -2 -43
-39 -1 -20 3 -39 9 -43 6 -3 7 -1 3 5 -3 6 -2 13 4 17 6 4 7 12 3 18 -4 7 7 0
25 -15 21 -17 40 -25 55 -22 12 2 38 7 57 10 19 3 40 9 45 14 6 4 29 11 53 15
23 4 42 12 42 18 0 5 3 7 7 4 3 -4 17 0 30 8 13 9 23 13 23 10 0 -3 14 7 30
22 17 14 30 33 30 42 0 14 2 14 10 1 6 -9 10 -10 10 -3 0 18 44 77 61 82 75
20 120 28 124 22 5 -9 -13 -34 -143 -209 -65 -88 -90 -114 -113 -119 -22 -4
-28 -10 -24 -27 2 -11 4 -24 4 -27 1 -4 8 -10 16 -13 11 -4 15 0 13 11 -2 9 2
18 8 20 8 3 8 -10 -1 -44 -7 -26 -16 -48 -22 -50 -17 -6 -85 89 -79 112 5 20
1 20 -302 19 l-307 -1 -20 -29 c-11 -16 -38 -54 -61 -84 -65 -88 -200 -274
-206 -285 -8 -13 92 -160 245 -362 l39 -53 188 0 c102 0 189 -2 192 -5 3 -4
-8 -43 -24 -88 -48 -132 -125 -365 -151 -457 -14 -47 -29 -85 -35 -85 -21 0
-224 170 -318 267 -338 349 -480 705 -383 963 18 47 19 59 8 66 -8 5 -63 39
-123 76 l-109 66 -20 -24 c-66 -82 -107 -221 -107 -362 1 -221 92 -450 281
-702 148 -198 451 -468 662 -590 26 -15 47 -32 47 -38 0 -6 -12 -22 -27 -35
-20 -16 -21 -19 -6 -10 12 7 24 10 27 8 2 -3 -2 -39 -10 -80 -8 -41 -13 -86
-12 -100 3 -24 4 -24 42 18 43 46 51 69 34 89 -12 15 -2 47 12 38 6 -4 8 -10
5 -15 -3 -4 2 -13 11 -20 8 -7 13 -18 11 -24 -2 -6 -1 -20 4 -31 6 -16 8 -14
8 13 1 17 6 32 11 32 6 0 10 7 10 15 0 28 25 26 85 -5 109 -57 330 -148 445
-182 209 -63 397 -97 433 -80 12 5 30 13 40 16 18 6 18 8 -2 40 -27 42 -26 48
2 44 12 -2 22 -9 22 -17 0 -20 24 -26 31 -7 3 9 13 16 20 16 19 0 7 -23 -38
-71 l-34 -37 51 -6 c138 -16 380 5 518 45 268 79 443 246 498 476 18 73 20
106 15 193 -3 58 -13 132 -21 165 -20 74 -102 270 -119 284 -9 8 -198 15 -282
12 -7 -1 -19 -12 -28 -26 -15 -23 -14 -27 19 -88 20 -36 48 -100 64 -143 104
-289 37 -520 -185 -636 -115 -61 -176 -72 -369 -73 -200 0 -296 17 -525 91
-137 45 -436 184 -499 233 l-24 18 21 79 c49 178 198 606 227 650 8 13 23 24
33 24 9 0 24 14 32 30 8 16 70 100 138 186 l123 155 -44 57 c-59 78 -60 81
-47 97 14 17 30 20 30 4 0 -5 26 -41 58 -79 l57 -68 315 -1 315 0 50 65 c28
37 55 71 61 78 5 6 35 45 64 86 30 41 57 77 60 80 16 15 60 80 60 89 0 12 -31
58 -88 129 -23 30 -40 58 -37 62 3 5 19 11 35 15 17 4 30 10 30 15 0 4 -19 27
-42 50 -36 35 -75 60 -198 129 -21 12 -234 59 -302 67 -33 3 -58 11 -58 18 0
18 166 243 254 345 227 262 419 332 496 182 40 -79 52 -164 48 -339 -2 -108 0
-162 7 -162 6 0 44 48 84 107 l74 106 -6 72 c-24 322 -187 481 -412 404z
m-1345 -629 c0 -5 -2 -10 -4 -10 -3 0 -8 5 -11 10 -3 6 -1 10 4 10 6 0 11 -4
11 -10z m190 -162 c0 -5 -7 -8 -15 -8 -15 0 -20 21 -8 33 7 7 23 -11 23 -25z
m635 -97 c-3 -6 -15 -8 -27 -6 -34 7 -34 15 1 15 18 0 30 -4 26 -9z m-775 -71
c6 -11 8 -20 6 -20 -3 0 -10 9 -16 20 -6 11 -8 20 -6 20 3 0 10 -9 16 -20z
m1147 -5 c21 -15 21 -20 19 -258 -1 -134 -6 -248 -9 -254 -5 -9 -110 -11 -370
-10 l-362 2 -3 96 -3 96 47 94 c55 110 110 207 132 232 14 15 40 17 271 17
211 0 260 -3 278 -15z m-1142 -87 c5 4 5 1 1 -6 -6 -10 -11 -10 -22 -1 -8 6
-14 14 -14 16 0 3 6 0 13 -6 8 -6 18 -7 22 -3z m-25 -334 c0 -8 -5 -12 -10 -9
-6 4 -8 11 -5 16 9 14 15 11 15 -7z m-117 -79 c45 -21 64 -50 46 -71 -6 -8
-17 -14 -24 -14 -6 0 -19 -18 -27 -39 -15 -37 -79 -91 -108 -91 -18 0 -11 -16
14 -29 38 -21 119 -17 160 7 40 24 80 81 91 131 6 29 9 32 17 17 11 -19 -10
-81 -44 -128 -32 -45 -141 -82 -186 -63 -25 11 -52 13 -52 3 0 -4 -9 1 -20 12
-20 20 -32 24 -57 21 -7 -1 -13 1 -13 5 0 15 36 64 50 69 8 3 21 18 28 33 14
33 33 53 81 87 l34 24 -29 13 c-16 7 -32 17 -35 22 -4 5 -34 0 -68 -11 -64
-21 -87 -16 -48 10 44 29 120 26 190 -8z m-232 -61 c-48 -61 -51 -162 -5 -229
14 -21 23 -42 21 -49 -3 -6 -8 -2 -13 9 -4 11 -10 22 -14 25 -3 3 -15 17 -27
33 -43 56 -19 228 34 239 27 6 27 2 4 -28z m-475 -659 c18 -44 18 -45 -4 -45
-13 0 -18 7 -18 21 1 25 -12 33 -33 20 -12 -8 -12 -13 -3 -24 10 -12 8 -16 -9
-20 -15 -4 -23 0 -26 14 -3 12 -14 19 -29 19 -28 0 -31 -16 -7 -42 13 -14 13
-18 2 -18 -21 0 -33 12 -47 43 -16 38 -15 49 6 43 9 -3 44 1 77 8 33 7 64 14
68 15 4 0 15 -15 23 -34z m-18 -80 c6 -14 16 -25 22 -25 5 0 10 -5 10 -10 0
-6 -11 -8 -26 -4 -18 5 -32 0 -50 -17 -19 -18 -27 -20 -37 -10 -9 9 -9 14 3
21 8 5 11 10 5 11 -5 1 -16 2 -22 3 -7 0 -13 6 -14 11 -1 6 13 9 29 7 23 -3
34 2 44 17 17 27 22 26 36 -4z m71 -79 l22 -24 -27 -21 c-32 -25 -61 -27 -92
-5 -18 12 -26 13 -37 4 -12 -10 -18 -10 -30 0 -14 11 -8 16 42 33 32 11 62 23
68 28 15 15 30 10 54 -15z m105 -35 c8 -12 -131 -79 -146 -70 -17 11 -3 22 54
43 26 10 50 22 53 27 8 11 32 12 39 0z m13 -73 c17 -14 16 -23 -3 -42 -18 -19
-85 -21 -102 -4 -43 43 56 87 105 46z m70 -61 c10 -12 30 -28 46 -34 28 -13
36 -38 15 -46 -7 -2 -23 3 -36 11 -17 11 -26 12 -34 4 -8 -8 -6 -13 8 -19 48
-18 57 -63 12 -63 -17 0 -19 3 -10 12 18 18 15 26 -9 30 -12 2 -27 11 -33 21
-9 15 -7 22 12 37 12 10 22 21 22 24 0 13 -49 5 -65 -10 -8 -9 -22 -13 -30
-10 -19 7 -20 26 -1 26 8 0 24 9 37 20 31 25 44 25 66 -3z m113 -87 c0 -5 -7
-10 -15 -10 -8 0 -15 5 -15 10 0 6 7 10 15 10 8 0 15 -4 15 -10z m88 -2 c8 -8
-2 -19 -43 -45 -30 -19 -55 -39 -55 -44 0 -6 -8 -5 -20 1 -28 15 -25 22 20 44
22 11 48 27 57 37 22 22 26 22 41 7z m25 -67 c35 -18 34 -30 -5 -62 l-32 -27
-38 26 -38 25 29 18 c16 9 32 22 36 29 4 6 10 10 13 8 4 -2 19 -10 35 -17z
m96 -43 c-3 -28 2 -38 20 -38 11 0 26 -6 34 -14 8 -8 29 -22 48 -31 115 -55
115 -56 72 -97 -26 -24 -30 -25 -60 -12 -39 17 -43 41 -9 50 16 4 23 11 19 20
-8 20 -37 17 -58 -6 -10 -11 -23 -20 -30 -20 -7 0 -20 9 -30 20 -10 11 -26 20
-36 20 -15 0 -38 36 -27 44 1 1 14 10 28 19 24 17 24 17 2 17 -12 0 -27 -9
-34 -20 -13 -20 -48 -28 -48 -12 0 10 51 57 71 65 24 10 40 7 38 -5z m266
-170 c27 -12 32 -23 14 -33 -6 -4 -16 1 -23 11 -8 11 -20 15 -30 11 -19 -8
-18 -42 1 -42 6 0 15 -3 19 -7 10 -11 -48 -10 -64 1 -20 12 -10 44 18 58 31
16 33 16 65 1z m85 -38 c0 -13 -7 -20 -20 -20 -12 0 -25 -10 -32 -25 -9 -20
-14 -22 -30 -14 -18 10 -18 12 14 44 38 39 68 45 68 15z m144 -26 c19 -7 21
-34 4 -34 -8 -1 -6 -6 5 -14 24 -19 22 -23 -18 -30 -34 -7 -49 -26 -20 -26 8
0 15 -4 15 -10 0 -14 -27 -12 -58 3 -15 8 -40 20 -56 28 -16 8 -31 19 -33 25
-4 12 39 34 66 34 10 0 24 7 31 15 13 16 38 19 64 9z m-484 -46 c0 -6 -6 -5
-15 2 -8 7 -15 14 -15 16 0 2 7 1 15 -2 8 -4 15 -11 15 -16z m-90 -24 c0 -8
-4 -12 -10 -9 -5 3 -10 10 -10 16 0 5 5 9 10 9 6 0 10 -7 10 -16z m758 -9 c23
-9 42 -21 42 -26 0 -14 -18 -11 -46 7 -19 13 -28 14 -37 5 -13 -13 -2 -27 25
-33 12 -2 15 -7 9 -17 -7 -11 -13 -10 -33 3 -22 14 -27 15 -37 2 -18 -22 -3
-39 30 -34 18 3 28 0 26 -6 -6 -19 -32 -18 -81 3 l-47 21 41 36 c22 20 40 43
40 51 0 8 6 13 13 10 6 -3 31 -13 55 -22z m117 -86 c6 -6 5 -16 -3 -27 -7 -9
-15 -24 -18 -33 -4 -11 -13 -15 -25 -12 -23 6 -24 16 -4 33 8 7 15 19 15 27 0
20 -41 -3 -47 -28 -6 -22 -8 -22 -33 -9 -18 9 -17 12 8 39 23 25 33 29 62 24
19 -2 39 -9 45 -14z m95 11 c0 -5 -7 -10 -15 -10 -8 0 -15 5 -15 10 0 6 7 10
15 10 8 0 15 -4 15 -10z m-26 -28 c8 -14 -43 -82 -70 -92 -26 -10 -54 -4 -54
12 0 6 10 8 23 4 19 -4 27 2 50 39 26 44 40 54 51 37z m114 -36 c13 -12 11
-18 -11 -40 -32 -32 -60 -33 -89 -4 l-21 21 27 24 c30 25 68 25 94 -1z"/>
<path d="M2301 2532 c-16 -30 -13 -42 9 -42 17 0 19 4 14 28 -9 36 -11 37 -23
14z"/>
<path d="M2230 2298 c0 -4 4 -8 9 -8 6 0 12 4 15 8 3 5 -1 9 -9 9 -8 0 -15 -4
-15 -9z"/>
<path d="M2240 2270 c-6 -11 -7 -20 -2 -20 10 0 32 21 32 32 0 16 -19 8 -30
-12z"/>
<path d="M2340 2148 c0 -7 5 -20 10 -28 9 -13 11 -13 20 0 16 24 12 40 -10 40
-11 0 -20 -6 -20 -12z"/>
<path d="M763 1190 c-26 -11 -31 -30 -7 -30 23 0 55 20 49 31 -7 11 -13 11
-42 -1z"/>
<path d="M894 1090 c-26 -10 -38 -26 -25 -34 11 -7 61 14 61 25 0 14 -14 17
-36 9z"/>
<path d="M1188 849 c-10 -5 -18 -14 -18 -19 0 -16 26 -11 51 10 23 18 23 19 4
19 -11 0 -28 -4 -37 -10z"/>
<path d="M1320 760 c0 -15 7 -20 28 -20 21 0 24 -2 12 -10 -20 -13 -4 -13 21
0 10 6 19 15 19 21 0 6 -5 7 -10 4 -6 -4 -22 0 -35 9 -31 21 -35 20 -35 -4z"/>
<path d="M1495 700 c3 -5 8 -10 11 -10 2 0 4 5 4 10 0 6 -5 10 -11 10 -5 0 -7
-4 -4 -10z"/>
<path d="M1458 673 c7 -3 16 -2 19 1 4 3 -2 6 -13 5 -11 0 -14 -3 -6 -6z"/>
<path d="M1717 554 c-9 -10 2 -24 19 -24 8 0 14 7 14 15 0 15 -21 21 -33 9z"/>
<path d="M1790 550 c0 -5 4 -10 9 -10 6 0 13 5 16 10 3 6 -1 10 -9 10 -9 0
-16 -4 -16 -10z"/>
<path d="M2246 373 c-4 -9 -2 -21 3 -26 15 -15 41 0 41 23 0 25 -35 28 -44 3z"/>
<path d="M1503 3023 c-25 -5 -27 -11 -14 -32 12 -19 34 -9 38 17 1 12 2 21 0
21 -1 -1 -12 -4 -24 -6z"/>
<path d="M1753 2910 c0 -22 3 -40 8 -40 5 0 9 11 9 25 0 33 9 32 43 -5 31 -32
52 -38 60 -17 6 15 -7 42 -20 42 -4 1 -22 9 -40 18 -48 26 -58 22 -60 -23z"/>
<path d="M1101 2866 c-9 -10 -9 -16 -1 -21 17 -10 37 12 24 25 -8 8 -15 6 -23
-4z"/>
<path d="M1873 2857 c-13 -7 -19 -17 -15 -24 5 -7 13 -3 25 13 20 27 20 28
-10 11z"/>
<path d="M1070 2747 c0 -13 -5 -28 -12 -35 -9 -9 -9 -12 1 -12 7 0 10 -4 7 -9
-3 -4 0 -16 8 -26 11 -15 17 -16 47 -6 19 6 52 27 73 46 22 19 43 32 47 29 4
-2 10 0 13 5 4 6 -9 8 -30 5 -46 -6 -77 3 -67 19 4 7 -5 4 -20 -6 -25 -16 -31
-15 -28 6 0 4 -8 7 -19 7 -14 0 -20 -7 -20 -23z"/>
<path d="M2774 1927 c-6 -15 -40 -17 -348 -17 l-343 0 -49 -62 c-27 -35 -48
-66 -46 -70 1 -5 -3 -8 -10 -8 -6 0 -9 -3 -5 -6 3 -4 -12 -25 -34 -48 -21 -24
-54 -64 -73 -90 l-34 -48 26 -29 c14 -16 32 -40 41 -53 34 -53 102 -147 119
-166 9 -10 30 -35 46 -54 16 -20 36 -36 45 -37 11 0 12 -2 3 -6 -10 -4 -10 -8
-1 -19 9 -11 69 -14 334 -14 l323 0 24 28 c12 16 34 44 48 62 36 49 87 112
108 135 35 38 112 145 112 156 0 6 -17 32 -37 57 -21 26 -42 53 -48 60 -5 8
-20 24 -32 37 -13 12 -23 25 -23 29 0 9 -18 31 -52 63 -16 15 -28 32 -28 38 0
6 -13 26 -30 45 -24 27 -31 30 -36 17z m-238 -85 c-3 -5 47 -7 111 -5 98 4
118 2 134 -13 22 -19 25 -44 7 -45 -9 0 -9 -2 -2 -5 7 -3 10 -13 8 -22 -2 -9
-5 -64 -7 -122 -1 -58 -6 -111 -10 -117 -5 -8 -4 -13 2 -13 6 0 11 -21 11 -50
0 -30 -4 -50 -11 -50 -7 0 -9 -11 -6 -27 9 -51 7 -51 -175 -53 -136 -1 -168 2
-162 12 6 11 5 11 -8 0 -11 -9 -61 -12 -182 -11 -91 0 -170 -2 -175 -6 -6 -3
-11 18 -13 52 -2 42 -7 57 -16 55 -8 -1 -11 2 -7 8 3 6 10 8 14 5 5 -2 9 6 9
20 0 16 -5 22 -12 18 -6 -4 -4 2 4 12 9 11 10 16 3 11 -7 -4 -13 -2 -13 3 0 6
5 11 11 11 6 0 7 5 2 13 -11 18 -13 38 -2 31 5 -3 5 5 0 19 -12 31 -16 166 -6
191 5 11 3 21 -6 26 -11 7 -10 12 4 28 16 17 34 19 248 18 127 -1 233 2 235 6
3 5 7 8 10 8 3 0 3 -4 0 -8z m-489 -514 c-3 -8 -6 -5 -6 6 -1 11 2 17 5 13 3
-3 4 -12 1 -19z"/>
<path d="M2478 1803 c6 -2 18 -2 25 0 6 3 1 5 -13 5 -14 0 -19 -2 -12 -5z"/>
<path d="M2195 1760 c-3 -5 1 -10 9 -10 9 0 16 5 16 10 0 6 -4 10 -9 10 -6 0
-13 -4 -16 -10z"/>
<path d="M2420 1760 c-15 -5 -19 -8 -8 -9 9 -1 19 -10 23 -21 5 -14 14 -19 39
-18 18 1 39 -2 47 -6 8 -4 5 0 -5 8 -11 9 -17 16 -13 16 4 0 3 9 -3 20 -11 21
-36 24 -80 10z"/>
<path d="M2241 1723 c-15 -10 -21 -22 -17 -36 3 -11 -2 -33 -9 -48 -10 -18
-11 -30 -5 -34 10 -6 35 41 31 58 -1 5 3 6 8 3 5 -4 22 4 38 17 15 13 35 27
43 31 9 3 6 5 -7 2 -12 -2 -30 2 -41 10 -16 11 -22 11 -41 -3z"/>
<path d="M2580 1712 c0 -5 7 -15 15 -22 8 -7 15 -9 15 -6 0 4 -7 14 -15 22 -8
9 -15 11 -15 6z"/>
<path d="M2136 1664 c-8 -21 -8 -24 3 -24 12 0 22 28 12 35 -5 3 -12 -2 -15
-11z"/>
<path d="M2690 1650 c0 -5 5 -10 10 -10 6 0 10 5 10 10 0 6 -4 10 -10 10 -5 0
-10 -4 -10 -10z"/>
<path d="M2607 1633 c4 -10 11 -21 17 -25 6 -4 6 -11 -2 -20 -6 -8 -9 -23 -8
-33 2 -11 -5 -35 -16 -53 -14 -23 -16 -32 -7 -30 8 2 21 17 29 33 15 30 47 40
63 20 4 -5 6 8 5 30 -3 33 -7 41 -26 43 -13 2 -28 14 -34 28 -13 27 -31 33
-21 7z"/>
<path d="M2166 1593 c-9 -9 -7 -33 3 -33 12 0 22 28 12 34 -5 3 -11 3 -15 -1z"/>
<path d="M2405 1586 c-27 -19 -13 -48 22 -44 31 3 44 35 21 49 -18 12 -21 11
-43 -5z"/>
<path d="M2746 1565 c-3 -8 -1 -17 3 -20 5 -3 11 2 15 10 3 8 1 17 -3 20 -5 3
-11 -2 -15 -10z"/>
<path d="M2206 1541 c-3 -5 1 -22 9 -37 9 -18 11 -30 4 -34 -14 -9 -1 -36 28
-55 15 -10 22 -22 19 -31 -3 -9 1 -17 12 -20 9 -3 28 -11 42 -16 31 -14 54
-19 45 -10 -4 4 -12 7 -18 7 -7 0 -11 8 -11 18 1 11 -6 17 -21 17 -31 0 -50
23 -32 39 16 13 93 -10 90 -27 -1 -6 20 -12 46 -14 37 -2 47 0 40 9 -12 14 -6
18 49 32 23 7 40 16 37 21 -3 5 3 13 12 19 31 18 9 12 -32 -9 -22 -11 -50 -20
-62 -20 -14 0 -23 -6 -23 -15 0 -21 -29 -19 -65 5 -16 11 -40 20 -52 20 -13 0
-24 8 -28 20 -6 17 -23 25 -47 21 -5 0 -7 2 -6 7 2 9 -20 62 -26 62 -3 0 -7
-4 -10 -9z"/>
<path d="M2124 1494 c3 -9 6 -20 6 -26 0 -7 5 -6 14 2 18 14 10 40 -11 40 -10
0 -13 -6 -9 -16z"/>
<path d="M2682 1489 c-9 -13 -9 -19 -1 -19 7 0 9 -9 6 -21 -3 -12 -2 -18 2
-13 13 14 22 62 13 68 -4 2 -13 -4 -20 -15z"/>
<path d="M2571 1446 c-19 -23 5 -28 30 -6 24 19 24 19 3 20 -12 0 -27 -6 -33
-14z"/>
<path d="M2178 1388 c3 -13 12 -18 33 -16 33 3 23 23 -15 30 -19 4 -22 1 -18
-14z"/>
<path d="M2541 1389 c-14 -11 -32 -18 -42 -16 -12 3 -15 0 -12 -14 3 -11 0
-19 -8 -19 -7 0 -10 -2 -7 -5 3 -3 18 1 34 10 16 8 35 15 43 15 8 0 11 3 8 6
-3 4 -2 15 4 25 12 24 10 23 -20 -2z"/>
<path d="M80 1760 c0 -5 5 -10 11 -10 5 0 7 5 4 10 -3 6 -8 10 -11 10 -2 0 -4
-4 -4 -10z"/>
<path d="M195 1750 c-3 -5 -1 -10 4 -10 6 0 11 5 11 10 0 6 -2 10 -4 10 -3 0
-8 -4 -11 -10z"/>
<path d="M76 1708 c-9 -27 -2 -51 16 -56 10 -2 18 -13 18 -25 0 -11 3 -18 6
-14 3 3 3 21 -2 39 -4 18 -9 27 -11 21 -9 -24 -19 -13 -17 17 2 31 -4 40 -10
18z"/>
<path d="M147 1524 c6 -15 23 -19 23 -5 0 5 -7 11 -14 14 -10 4 -13 1 -9 -9z"/>
<path d="M197 1514 c-8 -8 1 -24 14 -24 5 0 9 7 9 15 0 15 -12 20 -23 9z"/>
<path d="M177 1466 c-4 -10 1 -12 14 -9 23 6 24 9 5 16 -8 3 -17 0 -19 -7z"/>
<path d="M224 1400 c-12 -5 -25 -13 -28 -19 -4 -5 7 -3 24 5 16 9 30 17 30 20
0 5 0 5 -26 -6z"/>
<path d="M271 1384 c0 -11 3 -14 6 -6 3 7 2 16 -1 19 -3 4 -6 -2 -5 -13z"/>
<path d="M303 1275 c-12 -14 -17 -27 -12 -31 5 -3 9 0 9 6 0 6 4 9 8 6 14 -9
29 8 23 26 -5 15 -9 14 -28 -7z"/>
<path d="M402 1241 c-9 -6 -9 -11 1 -25 12 -16 15 -16 19 -4 8 20 -5 39 -20
29z"/>
<path d="M395 1170 c-3 -5 1 -10 9 -10 9 0 16 5 16 10 0 6 -4 10 -9 10 -6 0
-13 -4 -16 -10z"/>
<path d="M447 1150 c-5 -20 6 -33 31 -36 6 -1 12 2 12 7 0 5 -5 9 -11 9 -5 0
-8 4 -5 9 3 5 0 14 -8 20 -11 9 -15 7 -19 -9z"/>
<path d="M434 1109 c-3 -6 -1 -16 5 -22 8 -8 11 -5 11 11 0 24 -5 28 -16 11z"/>
<path d="M580 991 c0 -5 5 -13 10 -16 6 -3 10 -2 10 4 0 5 -4 13 -10 16 -5 3
-10 2 -10 -4z"/>
<path d="M1660 958 c-55 -73 -54 -66 -18 -88 18 -11 36 -20 40 -20 7 0 78 105
78 114 0 2 -11 7 -24 10 -13 3 -30 8 -38 11 -8 3 -24 -8 -38 -27z"/>
<path d="M1764 908 c-4 -6 -3 -13 3 -15 6 -2 19 -10 29 -18 17 -13 14 -14 -33
-15 -39 0 -53 -4 -53 -14 0 -19 156 -110 175 -102 25 9 17 23 -22 42 l-38 18
57 10 c93 18 91 29 -11 70 -104 41 -98 40 -107 24z"/>
<path d="M2017 873 c-15 -14 -6 -29 24 -40 17 -7 37 -9 45 -6 24 9 15 31 -17
42 -37 13 -43 13 -52 4z"/>
<path d="M779 850 c-15 -16 -15 -18 2 -29 27 -16 30 -14 25 15 -6 34 -8 34
-27 14z"/>
<path d="M823 818 c-7 -19 -13 -39 -13 -45 0 -16 43 -10 48 7 4 13 3 13 -10 2
-20 -16 -35 3 -18 23 6 8 10 22 8 31 -2 11 -7 5 -15 -18z"/>
<path d="M1956 789 c-20 -27 -39 -55 -42 -62 -4 -10 42 -47 59 -47 8 0 100
120 96 125 -2 1 -20 10 -40 18 l-36 15 -37 -49z"/>
<path d="M2075 749 c-51 -70 -64 -94 -53 -100 21 -14 74 -10 87 5 21 26 51 26
61 2 10 -27 29 -36 77 -36 32 0 35 2 28 23 -19 63 -19 67 11 68 16 0 38 4 49
8 36 15 -62 35 -112 23 -24 -5 -43 -7 -43 -5 0 2 11 21 25 41 l25 37 -27 12
c-50 21 -59 16 -128 -78z"/>
<path d="M930 730 c-6 -12 -7 -20 -1 -20 5 0 12 6 14 13 3 6 6 3 6 -7 1 -23
14 -13 18 14 4 26 -23 26 -37 0z"/>
<path d="M2398 703 c-25 -6 -22 -23 4 -23 35 0 8 -18 -32 -22 -45 -4 -52 -31
-13 -46 15 -6 72 -13 126 -17 88 -6 100 -4 113 12 26 34 17 51 -38 71 -57 21
-132 33 -160 25z m87 -73 c4 -6 -6 -10 -22 -10 -22 0 -25 2 -13 10 19 12 27
12 35 0z"/>
<path d="M1147 646 c-3 -8 -2 -18 3 -21 13 -8 24 15 12 27 -6 6 -11 4 -15 -6z"/>
<path d="M1466 491 c-3 -5 0 -11 8 -14 15 -6 26 1 26 15 0 11 -27 10 -34 -1z"/>
<path d="M1514 435 c-19 -15 -19 -15 1 -30 11 -9 25 -13 32 -11 7 3 13 0 13
-6 0 -18 10 -3 15 22 3 17 2 20 -10 10 -15 -12 -31 3 -20 20 9 15 -9 12 -31
-5z"/>
<path d="M1621 404 c0 -11 3 -14 6 -6 3 7 2 16 -1 19 -3 4 -6 -2 -5 -13z"/>
<path d="M1655 360 c-3 -6 1 -7 9 -4 18 7 21 14 7 14 -6 0 -13 -4 -16 -10z"/>
<path d="M1755 350 c-3 -6 0 -10 7 -11 8 0 7 -3 -3 -7 -14 -6 -15 -9 -3 -20
11 -10 14 -10 14 2 0 8 4 16 9 18 5 2 3 9 -4 15 -9 8 -16 9 -20 3z"/>
<path d="M1796 313 c-10 -26 44 -48 59 -23 3 6 1 10 -4 10 -6 0 -11 7 -11 15
0 20 -36 19 -44 -2z"/>
<path d="M1996 295 c-3 -8 -1 -15 4 -15 6 0 10 7 10 15 0 8 -2 15 -4 15 -2 0
-6 -7 -10 -15z"/>
<path d="M1950 259 c0 -5 5 -7 10 -4 6 3 10 1 10 -4 0 -6 5 -11 11 -11 8 0 8
5 -1 15 -14 17 -30 20 -30 4z"/>
<path d="M2330 187 c0 -7 4 -18 9 -25 6 -11 9 -9 14 7 3 12 -1 22 -9 25 -8 3
-14 0 -14 -7z"/>
<path d="M2380 191 c0 -5 6 -11 13 -14 8 -3 14 1 14 9 0 8 -6 14 -14 14 -7 0
-13 -4 -13 -9z"/>
<path d="M2494 157 c-2 -31 23 -31 29 0 3 16 0 23 -12 23 -10 0 -17 -9 -17
-23z"/>
<path d="M2545 170 c4 -6 11 -8 16 -5 14 9 11 15 -7 15 -8 0 -12 -5 -9 -10z"/>
<path d="M2536 135 c-3 -8 -1 -15 4 -15 6 0 10 7 10 15 0 8 -2 15 -4 15 -2 0
-6 -7 -10 -15z"/>
<path d="M2638 123 c6 -2 18 -2 25 0 6 3 1 5 -13 5 -14 0 -19 -2 -12 -5z"/>
</g>
</svg>
